<svg width="80" height="80" viewBox="0 0 80 80" fill="none" xmlns="http://www.w3.org/2000/svg">
<g clip-path="url(#clip0_296_13639)">
<path d="M19.9987 6.66671V3.33337M19.9987 33.3334V36.6667M10.6891 10.6904L8.33203 8.33337M29.5454 29.5468L31.9024 31.9038M6.66536 20H3.33203M33.332 20H36.6654M29.5462 10.6904L31.9032 8.33337M10.6899 29.5468L8.33284 31.9038M19.9987 28.3334C15.3963 28.3334 11.6654 24.6024 11.6654 20C11.6654 15.3977 15.3963 11.6667 19.9987 11.6667C24.6011 11.6667 28.332 15.3977 28.332 20C28.332 24.6024 24.6011 28.3334 19.9987 28.3334Z" stroke="white" stroke-width="3" stroke-linecap="round" stroke-linejoin="round"/>
<path d="M45 60H53.3333M45 60C45 68.2843 51.7157 75 60 75M45 60C45 51.7157 51.7157 45 60 45M53.3333 60H66.6667M53.3333 60C53.3333 68.2843 56.3181 75 60 75M53.3333 60C53.3333 51.7157 56.3181 45 60 45M66.6667 60H75M66.6667 60C66.6667 51.7157 63.6819 45 60 45M66.6667 60C66.6667 68.2843 63.6819 75 60 75M75 60C75 51.7157 68.2843 45 60 45M75 60C75 68.2843 68.2843 75 60 75" stroke="#915AF0" stroke-width="3" stroke-linecap="round" stroke-linejoin="round"/>
<path d="M59.9987 6.66671V3.33337M59.9987 33.3334V36.6667M50.6891 10.6904L48.332 8.33337M69.5454 29.5468L71.9024 31.9038M46.6654 20H43.332M73.332 20H76.6654M69.5462 10.6904L71.9032 8.33337M50.6899 29.5468L48.3328 31.9038M59.9987 28.3334C55.3963 28.3334 51.6654 24.6024 51.6654 20C51.6654 15.3977 55.3963 11.6667 59.9987 11.6667C64.6011 11.6667 68.332 15.3977 68.332 20C68.332 24.6024 64.6011 28.3334 59.9987 28.3334Z" stroke="#FF4B8C" stroke-width="3" stroke-linecap="round" stroke-linejoin="round"/>
<path d="M5 60H13.3333M5 60C5 68.2843 11.7157 75 20 75M5 60C5 51.7157 11.7157 45 20 45M13.3333 60H26.6667M13.3333 60C13.3333 68.2843 16.3181 75 20 75M13.3333 60C13.3333 51.7157 16.3181 45 20 45M26.6667 60H35M26.6667 60C26.6667 51.7157 23.6819 45 20 45M26.6667 60C26.6667 68.2843 23.6819 75 20 75M35 60C35 51.7157 28.2843 45 20 45M35 60C35 68.2843 28.2843 75 20 75" stroke="white" stroke-width="3" stroke-linecap="round" stroke-linejoin="round"/>
</g>
<defs>
<clipPath id="clip0_296_13639">
<rect width="80" height="80" fill="white"/>
</clipPath>
</defs>
</svg>
