<svg width="33" height="33" viewBox="0 0 33 33" fill="none" xmlns="http://www.w3.org/2000/svg">
<circle cx="16.7777" cy="16.2241" r="16" fill="#FEE500"/>
<path d="M16.824 7.94617C11.8461 7.94617 7.8316 11.1577 7.8316 15.0566C7.8316 17.5873 9.50162 19.8032 12.0066 21.0686L11.1588 24.2352C11.1428 24.2827 11.1403 24.3336 11.1517 24.3824C11.163 24.4312 11.1877 24.4759 11.223 24.5114C11.2745 24.5568 11.3407 24.5819 11.4093 24.582C11.4662 24.5775 11.5201 24.555 11.5634 24.5178L15.2118 22.0578C15.7503 22.1321 16.2932 22.1707 16.8368 22.1734C21.8084 22.1734 25.8292 18.9618 25.8292 15.0566C25.8292 11.1513 21.7955 7.94617 16.824 7.94617Z" fill="#392020"/>
<path d="M10.9786 13.9325H9.9959C9.87409 13.936 9.75379 13.9048 9.64905 13.8426C9.60254 13.8134 9.56256 13.775 9.53161 13.7297C9.50066 13.6843 9.47941 13.6331 9.4692 13.5792C9.46608 13.545 9.46608 13.5107 9.4692 13.4765C9.46615 13.4125 9.47856 13.3487 9.5054 13.2906C9.53223 13.2324 9.5727 13.1816 9.62335 13.1425C9.73533 13.0614 9.87049 13.0185 10.0087 13.0204H12.9698C13.0926 13.0161 13.2137 13.0497 13.3167 13.1168C13.3643 13.1446 13.4051 13.1827 13.4362 13.2282C13.4673 13.2738 13.4879 13.3257 13.4965 13.3801C13.4996 13.4122 13.4996 13.4444 13.4965 13.4765C13.4995 13.5414 13.4871 13.606 13.4604 13.6652C13.4336 13.7244 13.3931 13.7763 13.3424 13.8169C13.2331 13.8979 13.0992 13.9387 12.9634 13.9325H12.0128V17.3111C12.0166 17.3831 12.0055 17.455 11.9801 17.5225C11.9546 17.5899 11.9155 17.6514 11.865 17.7029C11.8167 17.7521 11.7586 17.7907 11.6944 17.8162C11.6302 17.8416 11.5615 17.8533 11.4925 17.8506C11.3719 17.854 11.2538 17.8155 11.1585 17.7415C11.0678 17.6691 11.0062 17.5665 10.9851 17.4524C10.9787 17.4055 10.9787 17.358 10.9851 17.3111L10.9786 13.9325Z" fill="#FEE500"/>
<path d="M13.7801 13.2709C13.8083 13.1652 13.8746 13.0737 13.9663 13.0139C14.064 12.9586 14.1753 12.9319 14.2875 12.9369H14.5316C14.6506 12.9326 14.7684 12.9615 14.872 13.0204C14.9817 13.0942 15.0597 13.2065 15.0904 13.3351L16.375 16.9642C16.4083 17.0589 16.4362 17.1554 16.4585 17.2533C16.4607 17.2939 16.4607 17.3346 16.4585 17.3753C16.4607 17.4379 16.4492 17.5002 16.4247 17.5579C16.4003 17.6156 16.3636 17.6673 16.3172 17.7093C16.2722 17.7554 16.2182 17.7918 16.1585 17.8161C16.0988 17.8404 16.0348 17.8521 15.9703 17.8506C15.8713 17.8604 15.7718 17.8367 15.6879 17.7831C15.604 17.7295 15.5406 17.6492 15.5079 17.5552L15.2381 16.7651H13.5488L13.279 17.5552C13.2471 17.651 13.183 17.7329 13.0975 17.7868C13.012 17.8406 12.9104 17.8632 12.8102 17.8506C12.7015 17.8534 12.5952 17.8195 12.5083 17.7542C12.4236 17.6869 12.3665 17.591 12.3477 17.4845C12.3443 17.4482 12.3443 17.4116 12.3477 17.3753C12.3367 17.3115 12.3367 17.2464 12.3477 17.1826C12.3477 17.112 12.3927 17.0348 12.4183 16.9642L13.7801 13.2709ZM14.4224 14.1124L13.8122 16.0393H15.0261L14.4224 14.1124Z" fill="#FEE500"/>
<path d="M16.6056 13.4765C16.5991 13.3324 16.6499 13.1915 16.7469 13.0847C16.7962 13.035 16.8554 12.9961 16.9207 12.9707C16.986 12.9452 17.0559 12.9337 17.1259 12.9369C17.2462 12.9355 17.3636 12.9739 17.4599 13.0462C17.5491 13.1215 17.6083 13.2263 17.6269 13.3416C17.6332 13.3863 17.6332 13.4318 17.6269 13.4765V16.8551H19.3932C19.5157 16.8535 19.636 16.8869 19.7401 16.9514C19.7869 16.9802 19.827 17.0186 19.858 17.064C19.889 17.1094 19.9101 17.1607 19.9199 17.2148C19.9199 17.2148 19.9199 17.279 19.9199 17.3111C19.923 17.3751 19.9106 17.4388 19.8837 17.497C19.8569 17.5551 19.8164 17.606 19.7658 17.6452C19.6538 17.7262 19.5186 17.769 19.3804 17.7672H17.2094C17.0711 17.7761 16.9337 17.7401 16.8176 17.6644C16.7137 17.5868 16.6445 17.4715 16.6249 17.3433C16.6202 17.2727 16.6202 17.2018 16.6249 17.1313L16.6056 13.4765Z" fill="#FEE500"/>
<path d="M20.0357 13.4766C20.0318 13.3328 20.0823 13.193 20.177 13.0848C20.2732 12.9973 20.3967 12.9456 20.5266 12.9386C20.6565 12.9316 20.7848 12.9696 20.8899 13.0462C20.9811 13.1209 21.0426 13.2256 21.0634 13.3416C21.0665 13.3865 21.0665 13.4317 21.0634 13.4766V15.0502L22.6884 13.1746C22.751 13.1106 22.8175 13.0506 22.8875 12.9948C22.9535 12.9555 23.0292 12.9355 23.1059 12.937C23.2182 12.9364 23.328 12.97 23.4207 13.0333C23.4643 13.0627 23.5016 13.1007 23.5303 13.1448C23.559 13.189 23.5785 13.2384 23.5877 13.2903C23.5903 13.303 23.5903 13.3161 23.5877 13.3288C23.5845 13.3437 23.5845 13.359 23.5877 13.3738C23.5874 13.4414 23.5697 13.5078 23.5363 13.5665C23.5022 13.6287 23.4613 13.6868 23.4142 13.7399L22.348 14.9089L23.6326 16.9001V16.9643C23.6993 17.0563 23.7513 17.1582 23.7868 17.2662V17.2983C23.7942 17.3727 23.7835 17.4479 23.7555 17.5172C23.7276 17.5866 23.6832 17.6481 23.6262 17.6965C23.5191 17.7775 23.388 17.8205 23.2537 17.8186C23.1644 17.8223 23.0758 17.8023 22.9967 17.7608C22.9112 17.7034 22.8407 17.6263 22.7912 17.536L21.5965 15.609L21.0248 16.2064V17.279C21.0287 17.4227 20.9782 17.5626 20.8835 17.6708C20.8328 17.7204 20.7724 17.7592 20.7061 17.7846C20.6398 17.81 20.5691 17.8216 20.4981 17.8186C20.3796 17.8211 20.2639 17.7825 20.1706 17.7094C20.0798 17.6371 20.0182 17.5345 19.9971 17.4204C19.9908 17.3735 19.9908 17.3259 19.9971 17.279L20.0357 13.4766Z" fill="#FEE500"/>
</svg>
