<svg width="33" height="33" viewBox="0 0 33 33" fill="none" xmlns="http://www.w3.org/2000/svg">
<g clip-path="url(#clip0_2372_76266)">
<path d="M31.5848 8.47142C31.4039 7.79063 31.0474 7.16931 30.5509 6.66962C30.0544 6.16994 29.4353 5.80942 28.7557 5.62414C26.2539 4.95142 16.2539 4.95142 16.2539 4.95142C16.2539 4.95142 6.25391 4.95142 3.75209 5.62414C3.07248 5.80942 2.45345 6.16994 1.95696 6.66962C1.46046 7.16931 1.10391 7.79063 0.922997 8.47142C0.253906 10.9841 0.253906 16.2241 0.253906 16.2241C0.253906 16.2241 0.253906 21.4641 0.922997 23.9769C1.10391 24.6576 1.46046 25.279 1.95696 25.7787C2.45345 26.2783 3.07248 26.6389 3.75209 26.8241C6.25391 27.4969 16.2539 27.4969 16.2539 27.4969C16.2539 27.4969 26.2539 27.4969 28.7557 26.8241C29.4353 26.6389 30.0544 26.2783 30.5509 25.7787C31.0474 25.279 31.4039 24.6576 31.5848 23.9769C32.2539 21.4641 32.2539 16.2241 32.2539 16.2241C32.2539 16.2241 32.2539 10.9841 31.5848 8.47142Z" fill="#FF0302"/>
<path d="M12.9812 20.9823V11.4659L21.3448 16.2241L12.9812 20.9823Z" fill="#F7F9FA"/>
</g>
<defs>
<clipPath id="clip0_2372_76266">
<rect width="32" height="32" fill="white" transform="translate(0.222168 0.224121)"/>
</clipPath>
</defs>
</svg>
